<?xml version="1.0" encoding="UTF-8" standalone="no"?>
<!DOCTYPE svg PUBLIC "-//W3C//DTD SVG 1.1//EN" "http://www.w3.org/Graphics/SVG/1.1/DTD/svg11.dtd">
<svg width="100%" height="100%" viewBox="0 0 267 226" version="1.1" xmlns="http://www.w3.org/2000/svg" xmlns:xlink="http://www.w3.org/1999/xlink" xml:space="preserve" xmlns:serif="http://www.serif.com/" style="fill-rule:evenodd;clip-rule:evenodd;stroke-linecap:round;stroke-linejoin:round;stroke-miterlimit:1.5;">
    <g transform="matrix(1,0,0,1,-2897,-731.489737)">
        <g transform="matrix(1.575641,0,0,2.315733,2476.420513,-1443.895658)">
            <g>
                <g transform="matrix(0.634662,0,0,0.431829,-1571.056143,622.651957)">
                    <path d="M3160,753.793L3160,938.731C3160,949.937 3150.902,959.034 3139.696,959.034L2925.304,959.034C2914.098,959.034 2905,949.937 2905,938.731L2905,753.793C2905,742.588 2914.098,733.49 2925.304,733.49L3139.696,733.49C3150.902,733.49 3160,742.588 3160,753.793Z" style="fill:rgb(233,240,247);"/>
                </g>
                <g transform="matrix(0.850145,0,0,0.850145,60.859951,149.733991)">
                    <g opacity="0.3">
                        <g transform="matrix(0.634662,0,0,0.431829,-1573.930409,623.515614)">
                            <path d="M3108,869L3108,886.923C3108,887.475 3107.552,887.923 3107,887.923L3105,887.923C3104.448,887.923 3104,887.475 3104,886.923L3104,869C3104,868.448 3104.448,868 3105,868L3107,868C3107.552,868 3108,868.448 3108,869Z" style="fill:rgb(185,213,242);"/>
                        </g>
                        <g transform="matrix(0.634662,0,0,0.431829,-1571.690806,623.515614)">
                            <ellipse cx="3102.981" cy="862" rx="13.346" ry="10" style="fill:rgb(185,213,242);"/>
                        </g>
                    </g>
                </g>
                <g>
                    <g transform="matrix(0.634662,0,0,0.431829,-1572.325468,623.515614)">
                        <path d="M3146.739,791L3152,791L3151,887.923L3120,883.416L3120,791L3125.261,791C3125.261,791 3123.875,778.481 3127,779C3127,779 3126.657,767.729 3130,768C3130,768 3130.039,758.775 3134,759L3136,746L3138,759C3141.961,758.775 3142,768 3142,768C3145.343,767.729 3145,779 3145,779C3148.125,778.481 3146.739,791 3146.739,791Z" style="fill:rgb(191,217,245);"/>
                    </g>
                    <g transform="matrix(0.634662,0,0,0.431829,-1571.690806,623.515614)">
                        <path d="M3130,788C3130,788 3130.673,783.753 3133,782L3133,788L3130,788Z" style="fill:white;"/>
                    </g>
                    <g transform="matrix(-0.634662,0,0,0.431829,2407.641985,623.515614)">
                        <path d="M3130,788C3130,788 3130.673,783.753 3133,782L3133,788L3130,788Z" style="fill:white;"/>
                    </g>
                </g>
                <g>
                    <g transform="matrix(0.634662,0,0,0.431829,-1572.325468,623.513738)">
                        <path d="M2961,766L2966,766L2966,849.988L2942,849.988L2942,766L2947.799,766C2947.799,766 2953.414,753.283 2954,745C2954,745 2957.385,762.926 2961,766Z" style="fill:rgb(162,201,239);"/>
                    </g>
                    <g transform="matrix(0.634662,0,0,0.431829,-1572.96013,625.674758)">
                        <path d="M2951,777.5L2951,787.5C2951,787.776 2950.776,788 2950.5,788L2949.5,788C2949.224,788 2949,787.776 2949,787.5L2949,777.5C2949,777.224 2949.224,777 2949.5,777L2950.5,777C2950.776,777 2951,777.224 2951,777.5Z" style="fill:rgb(207,232,255);"/>
                    </g>
                    <g transform="matrix(0.634662,0,0,0.431829,-1569.152156,626.535938)">
                        <path d="M2951,777.5L2951,787.5C2951,787.776 2950.776,788 2950.5,788L2949.5,788C2949.224,788 2949,787.776 2949,787.5L2949,777.5C2949,777.224 2949.224,777 2949.5,777L2950.5,777C2950.776,777 2951,777.224 2951,777.5Z" style="fill:rgb(207,232,255);"/>
                    </g>
                    <g transform="matrix(0.634662,0,0,0.431829,-1565.344182,625.674758)">
                        <path d="M2951,777.5L2951,787.5C2951,787.776 2950.776,788 2950.5,788L2949.5,788C2949.224,788 2949,787.776 2949,787.5L2949,777.5C2949,777.224 2949.224,777 2949.5,777L2950.5,777C2950.776,777 2951,777.224 2951,777.5Z" style="fill:rgb(207,232,255);"/>
                    </g>
                </g>
                <g transform="matrix(0.634662,0,0,0.431829,-1575.922959,623.664294)">
                    <path d="M3079.479,883.416C3089.476,882.835 3170,883.416 3170,883.416L3169,892L3079.479,892C3079.479,892 3071.631,883.872 3079.479,883.416Z" style="fill:rgb(185,213,242);"/>
                </g>
                <g transform="matrix(0.634662,0,0,0.431829,-1571.690806,623.515614)">
                    <path d="M2906,822L2906,804C2906,804 2912.531,794.731 2919,795C2925.469,795.269 2931.5,804 2931.5,804L2931.5,822L2906,822Z" style="fill:rgb(172,208,244);"/>
                </g>
                <g transform="matrix(0.634662,0,0,0.431829,-1571.690806,623.515614)">
                    <path d="M2904,822L2941,822L2941,849.856L2966,849.988L2966,891L2897,893L2904,822Z" style="fill:rgb(185,213,242);"/>
                </g>
            </g>
            <g transform="matrix(0.634662,0,0,0.431829,-1571.690806,623.515614)">
                <path d="M2931.5,957.034L2941,935C2941,935 2942.141,854.918 2965,849.984C2965,849.984 2975.293,841.754 2976,822C2976.284,814.077 2986.855,817.209 2987,822C2997.75,839.5 3040.5,927 3040.5,927C3040.5,927 3029.367,933.695 3027,941C3024.633,948.305 3013,957 3013,957L2931.5,957.034Z" style="fill:rgb(152,191,234);"/>
            </g>
            <g transform="matrix(0.634662,0,0,0.431829,-1571.690806,623.515614)">
                <path d="M3008,828L2989,849C2989,849 2984.798,858.511 2979,862C2979,862 2977.405,878.469 2975,883.416C2975,883.416 2987.405,916.412 2982,936C2982,936 2986.64,924.661 2994,924C2994,924 3024.274,929.621 3028,938L3052,921L3008,828Z" style="fill:rgb(63,131,206);"/>
            </g>
            <g transform="matrix(0.634662,0,0,0.431829,-1571.690806,623.515614)">
                <path d="M3066,822L3082,812C3082,812 3087.414,805.97 3094,811C3100.586,816.03 3089.069,828.57 3080,833C3070.931,837.43 3074,839 3074,839C3074,839 3085.172,835.749 3091,846C3096.828,856.251 3076.397,860.77 3074,857.5C3071.603,854.23 3066,822 3066,822Z" style="fill:rgb(139,182,229);"/>
            </g>
            <g>
                <g transform="matrix(0.634662,0,0,0.431829,-1571.690806,623.515614)">
                    <path d="M2983,893L2995,754C2995,754 2994.881,740.145 3003,739C3011.119,737.855 3074,743 3074,743C3074,743 3085.929,743.913 3085,754C3084.071,764.087 3072,915 3072,915C3072,915 3071.092,924.135 3060,925C3048.908,925.865 2992,920 2992,920C2992,920 2980.192,921.474 2983,893Z" style="fill:white;stroke:rgb(21,59,107);stroke-width:4px;"/>
                </g>
                <g transform="matrix(0.634662,0,0,0.431829,-1571.690806,622.539163)">
                    <path d="M2995,760L3080.972,766L3069.322,902.261L2986,896L2995,760Z" style="fill:rgb(240,237,230);stroke:white;stroke-width:2px;"/>
                </g>
                <g>
                    <g transform="matrix(0.634662,0,0,0.431829,-1571.690806,623.515614)">
                        <path d="M2996,781L3019,774L3021,761L3019,798L2996,781Z" style="fill:none;stroke:white;stroke-width:2px;"/>
                    </g>
                    <g transform="matrix(0.634662,0,0,0.431829,-1571.690806,623.515614)">
                        <path d="M2992,798L3011,808.997L2993,821L3008.5,830L3018,814L3021,833.773L3015,852.131L2988,896L3008.5,897L3015,880L3013,861.954L3030,861.954L3040.5,845L3048,794L3040.5,788L3057,761L3069.322,781L3080.972,781L3079.479,808.997L3066,802L3058,812L3045.795,808.997L3042.963,828.249L3072,852.131L3069.322,873L3047,843L3044,848L3044,868L3027,898L3059,900" style="fill:none;stroke:white;stroke-width:2px;"/>
                    </g>
                </g>
            </g>
            <g transform="matrix(0.634662,0,0,0.431829,-1571.690806,623.515614)">
                <path d="M3012.255,812.945C3011.459,811.652 3011,810.129 3011,808.5C3011,803.809 3014.809,800 3019.5,800C3024.191,800 3028,803.809 3028,808.5C3028,810.204 3027.497,811.792 3026.632,813.123C3026.136,813.888 3025.519,814.567 3024.81,815.136L3019.5,821L3014.311,815.231C3013.495,814.601 3012.797,813.826 3012.255,812.945Z" style="fill:rgb(90,201,118);"/>
            </g>
            <g transform="matrix(0.634662,0,0,0.431829,-1562.608896,655.002822)">
                <path d="M3012.255,812.945C3011.459,811.652 3011,810.129 3011,808.5C3011,803.809 3014.809,800 3019.5,800C3024.191,800 3028,803.809 3028,808.5C3028,810.204 3027.497,811.792 3026.632,813.123C3026.136,813.888 3025.519,814.567 3024.81,815.136L3019.5,821L3014.311,815.231C3013.495,814.601 3012.797,813.826 3012.255,812.945Z" style="fill:rgb(90,201,118);"/>
            </g>
            <g transform="matrix(0.634662,0,0,0.431829,-1555.627611,636.434187)">
                <path d="M3012.255,812.945C3011.459,811.652 3011,810.129 3011,808.5C3011,803.809 3014.809,800 3019.5,800C3024.191,800 3028,803.809 3028,808.5C3028,810.204 3027.497,811.792 3026.632,813.123C3026.136,813.888 3025.519,814.567 3024.81,815.136L3019.5,821L3014.311,815.231C3013.495,814.601 3012.797,813.826 3012.255,812.945Z" style="fill:rgb(250,145,67);"/>
            </g>
            <g transform="matrix(0.634662,0,0,0.431829,-1575.936805,645.502591)">
                <path d="M3012.255,812.945C3011.459,811.652 3011,810.129 3011,808.5C3011,803.809 3014.809,800 3019.5,800C3024.191,800 3028,803.809 3028,808.5C3028,810.204 3027.497,811.792 3026.632,813.123C3026.136,813.888 3025.519,814.567 3024.81,815.136L3019.5,821L3014.311,815.231C3013.495,814.601 3012.797,813.826 3012.255,812.945Z" style="fill:rgb(83,145,236);"/>
            </g>
            <g transform="matrix(0.634662,0,0,0.431829,-1551.819637,615.27458)">
                <path d="M3012.255,812.945C3011.459,811.652 3011,810.129 3011,808.5C3011,803.809 3014.809,800 3019.5,800C3024.191,800 3028,803.809 3028,808.5C3028,810.204 3027.497,811.792 3026.632,813.123C3026.136,813.888 3025.519,814.567 3024.81,815.136L3019.5,821L3014.311,815.231C3013.495,814.601 3012.797,813.826 3012.255,812.945Z" style="fill:rgb(83,145,236);"/>
            </g>
            <g transform="matrix(0.634662,0,0,0.431829,-1555.627611,636.434187)">
                <path d="M3012.255,812.945C3011.459,811.652 3011,810.129 3011,808.5C3011,803.809 3014.809,800 3019.5,800C3024.191,800 3028,803.809 3028,808.5C3028,810.204 3027.497,811.792 3026.632,813.123C3026.136,813.888 3025.519,814.567 3024.81,815.136L3019.5,821L3014.311,815.231C3013.495,814.601 3012.797,813.826 3012.255,812.945Z" style="fill:rgb(250,145,67);"/>
            </g>
            <g transform="matrix(0.634662,0,0,0.431829,-1571.690806,623.515614)">
                <path d="M2983,893L2995,754C2995,754 2994.881,740.145 3003,739C3011.119,737.855 3074,743 3074,743C3074,743 3085.929,743.913 3085,754C3084.071,764.087 3072,915 3072,915C3072,915 3071.092,924.135 3060,925C3048.908,925.865 2992,920 2992,920C2992,920 2980.192,921.474 2983,893Z" style="fill:none;stroke:rgb(21,59,107);stroke-width:4px;"/>
            </g>
            <g transform="matrix(1,0,0,1,0,0.431829)">
                <g transform="matrix(0.500041,0.26593,-0.404001,0.351689,-798.269035,-128.80063)">
                    <ellipse cx="3076.552" cy="882" rx="7.928" ry="9" style="fill:rgb(139,182,229);"/>
                </g>
                <g transform="matrix(0.587209,0.147204,-0.240163,0.443522,-1213.329803,169.06977)">
                    <ellipse cx="3076.552" cy="882" rx="7.928" ry="9" style="fill:rgb(139,182,229);"/>
                </g>
            </g>
        </g>
    </g>
</svg>
