<?xml version="1.0" encoding="UTF-8" standalone="no"?>
<!DOCTYPE svg PUBLIC "-//W3C//DTD SVG 1.1//EN" "http://www.w3.org/Graphics/SVG/1.1/DTD/svg11.dtd">
<svg width="100%" height="100%" viewBox="0 0 275 228" version="1.1" xmlns="http://www.w3.org/2000/svg" xmlns:xlink="http://www.w3.org/1999/xlink" xml:space="preserve" xmlns:serif="http://www.serif.com/" style="fill-rule:evenodd;clip-rule:evenodd;stroke-linecap:round;stroke-linejoin:round;stroke-miterlimit:1.5;">
    <g transform="matrix(1,0,0,1,-3271,-731.489737)">
        <g transform="matrix(1.575641,0,0,2.315733,2476.420513,-1443.895658)">
            <g transform="matrix(0.66204,0,0,0.431829,-1418.936294,622.651957)">
                <path d="M3160,753.793L3160,938.731C3160,949.937 3151.278,959.034 3140.536,959.034L2924.464,959.034C2913.722,959.034 2905,949.937 2905,938.731L2905,753.793C2905,742.588 2913.722,733.49 2924.464,733.49L3140.536,733.49C3151.278,733.49 3160,742.588 3160,753.793Z" style="fill:rgb(233,240,247);"/>
            </g>
            <g transform="matrix(0.634662,0,0,0.431829,-1571.690806,623.515614)">
                <path d="M3280,902L3279.255,902C3277.944,902 3276.88,900.936 3276.88,899.625L3276.88,894.875C3276.88,893.564 3277.944,892.5 3279.255,892.5L3369.625,892.5C3370.936,892.5 3372,893.564 3372,894.875L3372,899.625C3372,900.936 3370.936,902 3369.625,902L3372,902C3372,902 3367.959,918.845 3358,920L3357,957.034L3296,957L3295,921C3295,921 3278.311,915.132 3280,902Z" style="fill:rgb(57,120,195);"/>
            </g>
            <g transform="matrix(0.634662,0,0,0.431829,-1571.690806,623.515614)">
                <path d="M3330.713,892.5L3318,892.5C3318,892.5 3318.374,888.78 3321,887L3321,861C3321,861 3318.012,857.785 3322,855L3322,836C3322,836 3322.424,833.807 3324.357,833.994C3326.289,833.807 3326.713,836 3326.713,836L3326.713,855C3330.701,857.785 3327.713,861 3327.713,861L3327.713,887C3330.339,888.78 3330.713,892.5 3330.713,892.5Z" style="fill:rgb(121,172,227);"/>
            </g>
            <g>
                <g transform="matrix(0.634662,0,0,0.431829,-1571.690806,623.515614)">
                    <path d="M3295,851C3295,851 3291.563,852.697 3293,856C3293.67,857.539 3295,856 3295,856C3295,856 3295.881,854.053 3297,852C3297.536,851.016 3296.77,849.779 3295,851Z" style="fill:rgb(154,194,232);"/>
                </g>
                <g transform="matrix(-0.448059,0.188923,-0.232904,-0.255719,2227.349959,588.345062)">
                    <path d="M3295,851C3295,851 3291.563,852.697 3293,856C3293.67,857.539 3295,856 3295,856C3295,856 3295.881,854.053 3297,852C3297.536,851.016 3296.77,849.779 3295,851Z" style="fill:rgb(154,194,232);"/>
                </g>
                <g transform="matrix(0.693269,-0.221432,0.233769,0.338833,-1930.130143,1437.242846)">
                    <path d="M3295,851C3295,851 3291.563,852.697 3293,856C3293.67,857.539 3295,856 3295,856C3295,856 3295.881,854.053 3297,852C3297.536,851.016 3296.77,849.779 3295,851Z" style="fill:rgb(154,194,232);"/>
                </g>
                <g transform="matrix(0.634662,0,0,0.431829,-1573.109666,623.595789)">
                    <path d="M3294.908,839C3294.908,839 3294.487,841.487 3297.168,841C3299.849,840.513 3300,838 3300,838C3300,838 3301.925,832.757 3299,833.983C3296.075,835.208 3295.292,837.736 3294.908,839Z" style="fill:rgb(154,194,232);"/>
                </g>
                <g transform="matrix(-0.360926,0,0,0.431829,1741.150569,625.164661)">
                    <path d="M3294.908,839C3294.908,839 3294.487,841.487 3297.168,841C3299.849,840.513 3300,838 3300,838C3300,838 3301.925,832.757 3299,833.983C3296.075,835.208 3295.292,837.736 3294.908,839Z" style="fill:rgb(154,194,232);"/>
                </g>
                <g transform="matrix(0.634662,0,0,0.431829,-1571.690806,623.515614)">
                    <path d="M3301,825C3300.173,827.32 3301.687,830.71 3305,828C3308.313,825.29 3308.931,821.293 3313,822C3317.069,822.707 3317.084,822.563 3319,822C3320.916,821.437 3322.9,817.408 3318,817C3311.112,816.427 3302.574,820.582 3301,825Z" style="fill:rgb(154,194,232);"/>
                </g>
                <g transform="matrix(-0.532304,-0.065079,-0.095552,0.361827,2385.808907,898.312584)">
                    <path d="M3301,825C3300.173,827.32 3301.687,830.71 3305,828C3308.313,825.29 3308.931,821.293 3313,822C3317.069,822.707 3317.084,822.563 3319,822C3320.916,821.437 3322.9,817.408 3318,817C3311.112,816.427 3302.574,820.582 3301,825Z" style="fill:rgb(154,194,232);"/>
                </g>
            </g>
            <g transform="matrix(0.634662,0,0,0.431829,-1571.690806,623.515614)">
                <path d="M3324.44,957.034L3324.44,892.5C3323.129,892.5 3369.625,892.5 3369.625,892.5C3370.936,892.5 3372,893.564 3372,894.875L3372,899.625C3372,900.936 3370.936,902 3369.625,902L3372,902C3372,902 3367.959,918.845 3358,920L3357,957.034L3324.44,957.034Z" style="fill:rgb(13,67,137);"/>
            </g>
            <g>
                <g transform="matrix(0.634662,0,0,0.431829,-1571.690806,623.515614)">
                    <path d="M3351.139,807.665C3351.139,807.665 3335.427,785.574 3362.75,777C3386.459,769.56 3394.923,771.33 3403,776C3407.473,778.586 3409,774 3409,774C3409,774 3420.761,768.26 3428,784C3428,784 3428.352,797.842 3426,804C3423.648,810.158 3431.262,817.222 3438,819.311C3444.738,821.4 3427.175,822.693 3422,812C3422,812 3423.612,823.551 3422,828C3420.388,832.449 3406.157,830.52 3403,825C3399.843,819.48 3400,814 3400,814C3400,814 3398.193,805.592 3393,808C3383.563,812.375 3386,822 3386,822L3369,806C3369,806 3370.592,798.234 3369,796.981C3366.01,794.628 3361.397,800.051 3356,797C3353.331,795.491 3351.139,807.665 3351.139,807.665Z" style="fill:rgb(14,61,117);"/>
                </g>
                <g transform="matrix(0.634662,0,0,0.431829,-1571.690806,623.515614)">
                    <path d="M3354,797.49C3354,797.49 3345.325,817.647 3356,826L3354,837C3354,837 3351.109,843.693 3356,844.262L3360,844.262C3360,844.262 3359.749,848.12 3362,849C3362,849 3362.681,852.046 3366,851L3366,854.692L3371,860C3371,860 3370.868,866.022 3380,864C3389.132,861.978 3392,856 3392,856L3414,867C3414,867 3416.193,868.899 3418,866C3419.807,863.101 3425.912,833.288 3429,832C3432.088,830.712 3422,827 3422,827C3422,827 3415.646,833.987 3402,825C3402,825 3402.426,808.182 3396,807C3389.574,805.818 3385.051,814.967 3385,819C3384.949,823.033 3370,806 3370,806L3370,799C3370,799 3371.165,794.66 3368,795C3364.835,795.34 3362.481,799.916 3354,797.49Z" style="fill:rgb(141,184,231);"/>
                </g>
                <g transform="matrix(0.634662,0,0,0.431829,-1571.690806,623.515614)">
                    <path d="M3393,816.621C3393,816.621 3396.355,819.227 3394,822" style="fill:none;stroke:rgb(14,61,117);stroke-width:2px;"/>
                </g>
                <g transform="matrix(0.634662,0,0,0.431829,-1571.690806,623.515614)">
                    <path d="M3356,819C3356,819 3359.813,815.548 3365,816.962" style="fill:none;stroke:rgb(14,61,117);stroke-width:2px;"/>
                </g>
                <g transform="matrix(0.634662,0,0,0.431829,-1571.690806,623.515614)">
                    <path d="M3360.5,828C3360.5,828 3364.278,827.114 3365,825" style="fill:none;stroke:rgb(14,61,117);stroke-width:2px;"/>
                </g>
            </g>
            <g>
                <g transform="matrix(0.634662,0,0,0.431829,-1571.690806,623.515614)">
                    <path d="M3414,873L3429.588,828C3429.588,828 3464.705,828.619 3478,839C3478,839 3531.974,882.405 3537,910L3537,957L3454,957L3442,928C3442,928 3439.139,929.768 3438,927C3436.861,924.232 3413.738,879.428 3414,873Z" style="fill:rgb(48,118,203);"/>
                </g>
                <g transform="matrix(0.634662,0,0,0.431829,-1571.690806,623.515614)">
                    <path d="M3450,926C3450,926 3461.226,953.932 3461.405,957C3461.548,959.445 3479.904,959.357 3487.751,958.409C3489.748,958.167 3493,959 3493,959C3493,959 3489.438,914.735 3483,913L3450,926Z" style="fill:rgb(149,189,234);"/>
                </g>
                <g transform="matrix(0.634662,0,0,0.431829,-1571.690806,623.515614)">
                    <path d="M3450,925L3487,913C3487,913 3490.289,910.69 3489,907C3487.711,903.31 3477,873 3477,873" style="fill:none;stroke:rgb(14,61,117);stroke-width:2px;"/>
                </g>
                <g transform="matrix(0.634662,0,0,0.431829,-1571.690806,623.515614)">
                    <path d="M3441,916C3441,916 3419.515,872.808 3429.588,861C3439.212,849.717 3450,853 3450,853" style="fill:none;stroke:rgb(14,61,117);stroke-width:2px;"/>
                </g>
            </g>
            <g transform="matrix(0.634662,0,0,0.431829,-1571.690806,623.515614)">
                <path d="M3537,788L3537,732L3487,732L3485,769.201L3537,788Z" style="fill:rgb(47,113,191);"/>
            </g>
            <g transform="matrix(0.634662,0,0,0.431829,-1571.690806,623.515614)">
                <path d="M3444,769.201C3444,769.201 3433.879,771.827 3435,781C3436.121,790.173 3443.382,792.445 3449,791C3449,791 3450.935,799.264 3460,796C3460,796 3468.126,802.824 3475.499,795C3475.499,795 3474.592,806.634 3481,806C3481,806 3476.382,814.53 3485,816C3485,816 3488.062,822.575 3494,820C3494,820 3523.761,828.25 3527,825C3527,825 3532.051,836.791 3541,828C3549.949,819.209 3544,780 3544,780C3544,780 3499.104,761.963 3486,766L3497,732L3471,732L3443,761.085C3443,761.085 3441.705,767.425 3444,769.201Z" style="fill:rgb(93,150,215);"/>
            </g>
            <g transform="matrix(0.634662,0,0,0.431829,-1571.690806,623.515614)">
                <path d="M3342,732C3342,732 3330.917,743.408 3337,751C3343.083,758.592 3354,749 3354,749C3354,749 3351.145,757.518 3356,760C3360.855,762.482 3364,758 3364,758C3364,758 3364.137,761.687 3368,761C3371.863,760.313 3374.966,756.839 3375,754C3375,754 3377.538,760.112 3382,759C3386.462,757.888 3396,748 3396,748L3417,732L3342,732Z" style="fill:rgb(81,141,209);"/>
            </g>
            <g transform="matrix(0.634662,0,0,0.431829,-1571.690806,623.515614)">
                <path d="M3392.081,732C3392.081,732 3396.888,744.77 3402.037,743.401C3402.037,743.401 3394.313,749.988 3400,753C3400,753 3400.792,761.558 3410,757C3410,757 3406.556,764.507 3417,764C3417,764 3426.264,772.209 3434,768C3434,768 3442.116,763.738 3446,765C3449.884,766.262 3461.692,766.153 3463,759C3464.308,751.847 3459.424,743.74 3463,743C3466.576,742.26 3471,732 3471,732L3392.081,732Z" style="fill:rgb(51,126,206);"/>
            </g>
            <g transform="matrix(0.634662,0,0,0.431829,-1571.690806,623.515614)">
                <path d="M3502,867.611L3502,813C3502,813 3485.095,785.274 3468,771.954C3443.621,752.958 3419.166,744.252 3417,742C3417,742 3457.792,754.068 3463,761C3465.471,764.288 3449.647,741.101 3449,736C3448.353,730.899 3462.515,749.309 3468,759C3471.304,764.838 3503,801.208 3503,801.208L3503,761C3503,761 3488.026,739.667 3489,734L3494,734C3494,734 3500.831,746.436 3503,749L3504,732L3523,732L3522,746L3527,734L3530,736L3524,749L3523,801.208L3537,779L3537,794.981L3524,812L3524,888L3502,867.611Z" style="fill:rgb(14,61,117);"/>
            </g>
        </g>
    </g>
</svg>
