<?xml version="1.0" encoding="UTF-8" standalone="no"?>
<!DOCTYPE svg PUBLIC "-//W3C//DTD SVG 1.1//EN" "http://www.w3.org/Graphics/SVG/1.1/DTD/svg11.dtd">
<svg width="100%" height="100%" viewBox="0 0 267 233" version="1.1" xmlns="http://www.w3.org/2000/svg" xmlns:xlink="http://www.w3.org/1999/xlink" xml:space="preserve" xmlns:serif="http://www.serif.com/" style="fill-rule:evenodd;clip-rule:evenodd;stroke-linecap:round;stroke-linejoin:round;stroke-miterlimit:1.5;">
    <g transform="matrix(1,0,0,1,-2519,-733.489737)">
        <g transform="matrix(1.575641,0,0,1.721289,2476.420513,-899.978992)">
            <g transform="matrix(0.637075,0,0,0.58096,-1577.769568,521.985863)">
                <path d="M2782,749.434L2782,945.547C2782,953.524 2775.548,960 2767.602,960L2533.398,960C2525.452,960 2519,953.524 2519,945.547L2519,749.434C2519,741.457 2525.452,734.98 2533.398,734.98L2767.602,734.98C2775.548,734.98 2782,741.457 2782,749.434Z" style="fill:rgb(239,243,247);"/>
            </g>
            <g transform="matrix(0.634662,0,0,0.581304,-1571.690806,522.54234)">
                <path d="M2786,901L2634,901L2634,957L2785,959L2786,901Z" style="fill:rgb(199,221,244);"/>
            </g>
            <g transform="matrix(0.634662,0,0,0.58096,-1572.463993,521.68346)">
                <path d="M2786,886L2703,887L2704,867.488C2704,867.488 2728.455,866.149 2731,872.413C2733.545,878.677 2743,874.975 2743,874.975C2743,874.975 2745.934,861.143 2755,861C2755,861 2756.729,851.915 2765,852C2773.271,852.085 2773,858 2773,858C2773,858 2783.259,855.149 2786,867.488C2788.741,879.828 2786,886 2786,886Z" style="fill:rgb(176,208,242);"/>
            </g>
            <g transform="matrix(0.634662,0,0,0.58096,-1571.690806,522.851912)">
                <path d="M2734,937.789L2736,814C2736,814 2723.609,825.052 2723,829.916C2722.391,834.78 2719.9,816.437 2729,814C2729,814 2713.503,810.841 2707,820C2707,820 2704.153,805.923 2724,805C2724,805 2714.23,794.562 2706,796C2706,796 2712.188,782.954 2731,794C2731,794 2728.596,779.279 2722,778C2722,778 2741.862,772.615 2743,799C2743,799 2769.893,783.585 2779,803C2779,803 2768.799,798.348 2762,801C2762,801 2774.291,807.9 2775,821C2775,821 2764.196,807.831 2757,809C2757,809 2770.282,819.246 2768,829.916C2768,829.916 2758.543,818.648 2752,817C2752,817 2758.679,826.702 2755,832C2755,832 2746.202,815.753 2743,816C2739.798,816.247 2742,938 2742,938C2742,938 2753.082,940.857 2754,943.789L2723,943C2723,943 2727.42,936.873 2734,937.789Z" style="fill:rgb(156,190,232);"/>
            </g>
            <g transform="matrix(0.634662,0,0,0.58096,-1572.325468,523.148811)">
                <path d="M2646.65,917C2646.65,917 2654.775,895.333 2658,887C2659.94,881.987 2657.52,867.485 2666,867C2674.48,866.515 2684,874 2684,874L2681,914C2681,914 2677.93,924.518 2671,924C2664.07,923.482 2650.393,944 2650.393,944L2646.65,917Z" style="fill:rgb(127,173,226);"/>
            </g>
            <g transform="matrix(0.634662,0,0,0.58096,-1571.056143,522.851912)">
                <path d="M2576,829.916C2601.467,829.749 2605,816 2605,816C2605,816 2601.725,814.202 2599,806C2596.275,797.798 2604.558,789.088 2612,785C2619.442,780.912 2622,796 2622,796L2627,787L2629,773L2643,771L2642,779L2641,805C2641,805 2642.768,809.902 2645,815C2647.232,820.098 2643,822 2643,822L2639,822C2639,822 2639.5,826.597 2639,827.916C2638.646,828.851 2636,829.916 2636,829.916L2635,834C2635,834 2635.174,840.248 2629,846C2622.826,851.751 2612,846 2612,846L2605,867L2566,853L2576,829.916Z" style="fill:rgb(149,189,233);"/>
            </g>
            <g transform="matrix(0.634662,0,0,0.58096,-1571.690806,522.851912)">
                <path d="M2569,817C2569,817 2569.515,826.356 2573,829.916C2576.485,833.476 2581,829.916 2581,829.916C2581,829.916 2583.562,828.692 2586,829.916C2588.438,831.14 2590.272,832.774 2595,829.916C2599.728,827.058 2606,819 2606,819C2606,819 2609.174,813.714 2607,811C2604.826,808.286 2603.134,795.446 2608,794C2608,794 2612.125,790.678 2616,793C2619.875,795.322 2619,801 2619,801C2619,801 2620.935,804.069 2623,801C2625.065,797.931 2628,792 2628,792C2628,792 2632.006,786.57 2631,783C2629.994,779.43 2630,780 2630,780C2630,780 2630.599,776.843 2633,777C2635.401,777.157 2640,777 2640,777C2640,777 2647.918,777.711 2650,769C2652.082,760.289 2645.526,751.233 2639,753C2639,753 2632.941,734.293 2613,735C2593.059,735.707 2588.5,745 2588.5,745C2588.5,745 2561.962,745.942 2562,768C2562,768 2547.522,781.791 2559,800C2559,800 2559.45,812.398 2569,817Z" style="fill:rgb(16,60,113);"/>
            </g>
            <g transform="matrix(0.634662,0,0,0.58096,-1571.690806,522.851912)">
                <path d="M2519,886C2519,886 2526.728,863.204 2555,858C2555,858 2559.001,845.911 2564,846C2573.333,846.167 2598.138,849.613 2611,859C2611,859 2616.07,862.499 2613,868L2633,882C2633,882 2640.981,888.002 2646,898C2655.371,916.667 2658,960 2658,960L2519,959L2519,886Z" style="fill:rgb(48,119,209);"/>
            </g>
            <g transform="matrix(1,0,0,1,-34.065484,-9.343896)">
                <g>
                    <g transform="matrix(0.634662,0,0,0.58096,-1537.363658,532.215737)">
                        <path d="M2658,903L2679,836C2679,836 2680.658,829.349 2685,829.916C2689.577,830.514 2715,837 2715,837C2715,837 2721.527,837.387 2720,844C2718.473,850.613 2696,920 2696,920L2661,909C2661,909 2657.304,906.108 2658,903Z" style="fill:white;stroke:rgb(15,46,105);stroke-width:3px;"/>
                    </g>
                    <g transform="matrix(0.614469,0.145382,-0.158821,0.562475,-1349.964372,156.30657)">
                        <path d="M2708,832L2708,834C2708,834.552 2707.552,835 2707,835L2693,835C2692.448,835 2692,834.552 2692,834L2692,832C2692,831.448 2692.448,831 2693,831L2707,831C2707.552,831 2708,831.448 2708,832Z" style="fill:rgb(15,46,105);"/>
                    </g>
                </g>
                <g>
                    <g transform="matrix(0.186,0.053989,-0.058979,0.170261,171.338713,1038.935491)">
                        <g>
                            <circle cx="0" cy="0" r="11" style="fill:rgb(249,115,22);"/>
                            <path d="M1.2,-17.8L1.2,-15.2C1.2,-14.538 0.662,-14 0,-14C-0.662,-14 -1.2,-14.538 -1.2,-15.2L-1.2,-17.8C-1.2,-18.462 -0.662,-19 0,-19C0.662,-19 1.2,-18.462 1.2,-17.8Z" style="fill:rgb(249,115,22);"/>
                            <path d="M1.2,15.2L1.2,17.8C1.2,18.462 0.662,19 0,19C-0.662,19 -1.2,18.462 -1.2,17.8L-1.2,15.2C-1.2,14.538 -0.662,14 0,14C0.662,14 1.2,14.538 1.2,15.2Z" style="fill:rgb(249,115,22);"/>
                            <path d="M19,0C19,0.662 18.462,1.2 17.8,1.2L15.2,1.2C14.538,1.2 14,0.662 14,0C14,-0.662 14.538,-1.2 15.2,-1.2L17.8,-1.2C18.462,-1.2 19,-0.662 19,0Z" style="fill:rgb(249,115,22);"/>
                            <path d="M-14,0C-14,0.662 -14.538,1.2 -15.2,1.2L-17.8,1.2C-18.462,1.2 -19,0.662 -19,0C-19,-0.662 -18.462,-1.2 -17.8,-1.2L-15.2,-1.2C-14.538,-1.2 -14,-0.662 -14,0Z" style="fill:rgb(249,115,22);"/>
                            <g transform="matrix(0.707107,0.707107,-0.707107,0.707107,0,0)">
                                <path d="M1.2,-17.8L1.2,-15.2C1.2,-14.538 0.662,-14 0,-14C-0.662,-14 -1.2,-14.538 -1.2,-15.2L-1.2,-17.8C-1.2,-18.462 -0.662,-19 0,-19C0.662,-19 1.2,-18.462 1.2,-17.8Z" style="fill:rgb(249,115,22);"/>
                            </g>
                            <g transform="matrix(-0.707107,0.707107,-0.707107,-0.707107,0,0)">
                                <path d="M1.2,-17.8L1.2,-15.2C1.2,-14.538 0.662,-14 0,-14C-0.662,-14 -1.2,-14.538 -1.2,-15.2L-1.2,-17.8C-1.2,-18.462 -0.662,-19 0,-19C0.662,-19 1.2,-18.462 1.2,-17.8Z" style="fill:rgb(249,115,22);"/>
                            </g>
                            <g transform="matrix(0.707107,-0.707107,0.707107,0.707107,0,0)">
                                <path d="M1.2,-17.8L1.2,-15.2C1.2,-14.538 0.662,-14 0,-14C-0.662,-14 -1.2,-14.538 -1.2,-15.2L-1.2,-17.8C-1.2,-18.462 -0.662,-19 0,-19C0.662,-19 1.2,-18.462 1.2,-17.8Z" style="fill:rgb(249,115,22);"/>
                            </g>
                            <g transform="matrix(-0.707107,-0.707107,0.707107,-0.707107,0,0)">
                                <path d="M1.2,-17.8L1.2,-15.2C1.2,-14.538 0.662,-14 0,-14C-0.662,-14 -1.2,-14.538 -1.2,-15.2L-1.2,-17.8C-1.2,-18.462 -0.662,-19 0,-19C0.662,-19 1.2,-18.462 1.2,-17.8Z" style="fill:rgb(249,115,22);"/>
                            </g>
                        </g>
                    </g>
                    <g transform="matrix(0.186,0.053989,-0.058979,0.170261,164.180096,1031.236194)">
                        <path d="M30,12C38,26 48,38 48,50C48,60 40,67 30,67C20,67 12,60 12,50C12,38 22,26 30,12Z" style="fill:rgb(59,130,246);fill-rule:nonzero;"/>
                    </g>
                </g>
            </g>
            <g>
                <g transform="matrix(0.634662,0,0,0.58096,-1571.667743,523.310212)">
                    <path d="M2666,961C2664.487,970.329 2698.531,962 2698.531,962C2698.531,962 2702.949,941.746 2698.531,945C2694.112,948.254 2680,939 2680,939C2680,939 2667.513,951.671 2666,961Z" style="fill:rgb(113,165,225);"/>
                </g>
                <g transform="matrix(0.634662,0,0,0.58096,-1571.690806,522.851912)">
                    <path d="M2680,938C2680,938 2682.713,918.135 2688,911C2693.287,903.865 2698.714,898 2698.714,898C2698.714,898 2700.551,878.742 2704.299,879C2708.048,879.258 2709.222,879.212 2709,883C2708.778,886.788 2708.527,874.031 2712,873C2715.473,871.969 2714.568,872.294 2716,874C2717.432,875.706 2717,906 2717,906C2717,906 2715.494,915.748 2713,921C2710.506,926.252 2698.714,949 2698.714,949C2698.714,949 2680.584,942.922 2680,938Z" style="fill:rgb(127,173,226);"/>
                </g>
            </g>
        </g>
    </g>
</svg>
