<?xml version="1.0" encoding="UTF-8" standalone="no"?>
<!DOCTYPE svg PUBLIC "-//W3C//DTD SVG 1.1//EN" "http://www.w3.org/Graphics/SVG/1.1/DTD/svg11.dtd">
<svg width="100%" height="100%" viewBox="0 0 68 68" version="1.1" xmlns="http://www.w3.org/2000/svg" xmlns:xlink="http://www.w3.org/1999/xlink" xml:space="preserve" xmlns:serif="http://www.serif.com/" style="fill-rule:evenodd;clip-rule:evenodd;stroke-linejoin:round;stroke-miterlimit:2;">
    <g transform="matrix(1,0,0,1,-2832,-477.166007)">
        <g transform="matrix(0.81774,0,0,0.497797,2446.5,221.995595)">
            <g transform="matrix(1,0,0,1,180.986627,6.85434)">
                <g transform="matrix(1.222883,0,0,2.00885,-2764.326152,-446.450061)">
                    <circle cx="2532" cy="508" r="34" style="fill:rgb(244,117,32);"/>
                </g>
                <g transform="matrix(1.388137,0,0,2.280316,-3522.99887,-585.495027)">
                    <path d="M2790.204,511.289C2790.412,513.349 2788.98,518.418 2785,519C2784.138,519.126 2784.223,521.581 2784.18,523L2784.462,523C2784.759,523 2785,523.241 2785,524.419L2785,525.581C2785,525.878 2785.131,527 2783.953,527L2784.34,527L2772.419,527C2771.241,527 2771,525.878 2771,525.581L2771,524.419C2771,523.241 2772.122,523 2772.419,523L2772.379,521C2772.026,519.372 2772,519 2772,519C2766.687,518.735 2765.182,513.829 2765,511C2764.887,509.24 2764.928,506.395 2764.966,504.761C2764.39,504.439 2764,503.823 2764,503.117L2764,491.883C2764,490.844 2764.844,490 2765.883,490L2776.117,490C2777.156,490 2778,490.844 2778,491.883L2778,503.117C2778,504.156 2777.156,505 2776.117,505L2772.359,505C2772.543,507.181 2772.546,508.486 2772.476,510.539C2775.904,510.688 2784.197,510.399 2788,510.551L2788,508.5L2774.625,508.5C2774.28,508.5 2774,508.22 2774,507.875L2774,506.625C2774,506.28 2774.28,506 2774.625,506L2789.579,506C2789.924,506 2790.204,506.28 2790.204,506.625L2790.204,511.289Z" style="fill:white;"/>
                </g>
            </g>
        </g>
    </g>
</svg>
