<svg xmlns="http://www.w3.org/2000/svg" viewBox="0 0 80 80">
  <g transform="translate(48 30)">
    <g fill="#f97316">
      <circle cx="0" cy="0" r="11" />
      <rect x="-1.2" y="-19" width="2.4" height="5" rx="1.2" />
      <rect x="-1.2" y="14" width="2.4" height="5" rx="1.2" />
      <rect x="14" y="-1.2" width="5" height="2.4" rx="1.2" />
      <rect x="-19" y="-1.2" width="5" height="2.4" rx="1.2" />
      <rect x="-1.2" y="-19" width="2.4" height="5" rx="1.2" transform="rotate(45)" />
      <rect x="-1.2" y="-19" width="2.4" height="5" rx="1.2" transform="rotate(135)" />
      <rect x="-1.2" y="-19" width="2.4" height="5" rx="1.2" transform="rotate(-45)" />
      <rect x="-1.2" y="-19" width="2.4" height="5" rx="1.2" transform="rotate(-135)" />
    </g>
  </g>
  <path
    d="M30 12 C 38 26, 48 38, 48 50 C 48 60, 40 67, 30 67 C 20 67, 12 60, 12 50 C 12 38, 22 26, 30 12 Z"
    fill="#3b82f6"
  />
</svg>
